<svg data-v-423bf9ae="" xmlns="http://www.w3.org/2000/svg" viewBox="0 0 412 90" class="iconLeftSlogan"><!----><!----><!----><g data-v-423bf9ae="" id="37be2ad5-59f7-4351-a3c6-66637a6c761b" fill="black" transform="matrix(6.417111873626709,0,0,6.417111873626709,131.0203094482422,-35.935821533203125)" style="--darkreader-inline-fill:#000000;" data-darkreader-inline-fill=""><path d="M0.49 9.52L1.78 9.52L1.78 13.94L3.40 14.88L5.24 14.88L5.24 13.24L3.70 13.24L3.70 9.52L5.24 9.52L5.24 7.88L3.70 7.88L3.70 5.60L1.78 6.71L1.78 7.88L0.49 7.88ZM11.40 10.46L12.63 14.88L14.62 14.88L16.41 7.88L14.63 7.88L13.54 12.35L13.51 12.35L12.26 7.88L10.50 7.88L9.25 12.35L9.23 12.35L8.13 7.88L6.36 7.88L8.15 14.88L10.14 14.88L11.37 10.46ZM19.45 12.12L21.42 12.12L21.42 13.34L19.45 13.34ZM19.15 14.95L20.43 14.95L21.42 14.38L22.41 14.95L23.34 14.95L23.34 8.82L21.71 7.88L18.23 7.88L18.23 9.52L21.42 9.52L21.42 10.65L19.15 10.65L17.53 11.59L17.53 14.01ZM24.88 9.52L26.17 9.52L26.17 13.94L27.79 14.88L29.62 14.88L29.62 13.24L28.08 13.24L28.08 9.52L29.62 9.52L29.62 7.88L28.08 7.88L28.08 5.60L26.17 6.71L26.17 7.88L24.88 7.88ZM37.25 13.24L33.36 13.24L33.36 12.10L37.25 12.10L37.25 8.75L35.63 7.81L33.07 7.81L31.44 8.75L31.44 13.94L33.07 14.88L37.25 14.88ZM33.36 9.45L35.34 9.45L35.34 10.65L33.36 10.65ZM43.68 9.52L43.68 7.88L42.27 7.88L41.27 8.46L40.94 7.88L39.35 7.88L39.35 14.88L41.27 14.88L41.27 9.52Z"></path></g><!----><g data-v-423bf9ae="" id="7875c7ff-9417-4463-ab13-207f4fe40943" transform="matrix(1.1514921188354492,0,0,1.1514921188354492,-0.14703238010406494,-11.654372215270996)" stroke="none" fill="black" style="--darkreader-inline-fill:#000000; --darkreader-inline-stroke:none;" data-darkreader-inline-fill="" data-darkreader-inline-stroke=""><path d="M41.284 16.77c-6.892-8.522-22.535-8.018-31.278 3.399-1.577 2.059-2.811 4.729-3.743 7.761L.427 30.366l4.57 2.841c-2.102 11.536-.88 25.768 2.064 32.698 9.018 21.227 38.185 27.266 55.113 20.588 24.564-9.692 37.398-29.309 37.398-29.309s-28.674-.305-58.288-40.414zm-20.182 9.708c-.336 1.649-2.192 2.682-4.146 2.305-1.954-.376-3.266-2.019-2.93-3.668.335-1.649 2.192-2.682 4.146-2.306 1.954.377 3.265 2.019 2.93 3.669zm57.818 38.61c-2.406 6.359-13.541 8.04-24.867 3.754C42.726 64.556 35.494 55.926 37.9 49.565c2.406-6.36 13.54-8.041 24.868-3.754 11.326 4.286 18.558 12.917 16.152 19.277z"></path></g><!----><g data-v-423bf9ae="" id="3ad654f4-3464-4d8b-be0d-a5a70ff0bebf" fill="black" transform="matrix(0.8857977390289307,0,0,0.8857977390289307,133.04859924316406,57.829795837402344)" style="--darkreader-inline-fill:#000000;" data-darkreader-inline-fill=""><path d="M1.26 2.80L1.26 12.60L5.74 12.60L5.74 12.19L1.68 12.19L1.68 2.80ZM14.21 2.80L14.21 12.60L14.63 12.60L14.63 2.80ZM24.01 2.80L24.01 12.60L24.43 12.60L24.43 7.56L28.87 12.60L29.46 12.60L24.86 7.39L29.25 2.80L28.67 2.80L24.43 7.24L24.43 2.80ZM38.35 7.48L42.69 7.48L42.69 7.08L38.35 7.08L38.35 3.21L42.97 3.21L42.97 2.80L37.93 2.80L37.93 12.60L42.97 12.60L42.97 12.19L38.35 12.19ZM62.57 3.21L65.09 3.21L65.09 12.60L65.51 12.60L65.51 3.21L68.03 3.21L68.03 2.80L62.57 2.80ZM79.27 11.69L76.03 2.80L75.59 2.80L79.30 12.95L82.24 3.79L85.18 12.95L88.89 2.80L88.44 2.80L85.20 11.69L82.24 2.45ZM97.36 2.80L97.36 12.60L97.78 12.60L97.78 2.80ZM106.25 3.21L108.77 3.21L108.77 12.60L109.19 12.60L109.19 3.21L111.71 3.21L111.71 2.80L106.25 2.80ZM120.67 7.48L125.01 7.48L125.01 7.08L120.67 7.08L120.67 3.21L125.29 3.21L125.29 2.80L120.25 2.80L120.25 12.60L125.29 12.60L125.29 12.19L120.67 12.19ZM135.09 2.80ZM134.67 2.80L134.67 12.60L135.09 12.60L135.09 8.48L136.64 8.48L139.76 12.60L140.31 12.60L137.12 8.47C138.01 8.41 138.73 8.15 139.27 7.67C139.80 7.20 140.07 6.52 140.07 5.64C140.07 4.71 139.77 4.00 139.16 3.52C138.55 3.04 137.76 2.80 136.77 2.80ZM135.09 3.21L136.77 3.21C137.63 3.21 138.33 3.41 138.85 3.83C139.37 4.24 139.64 4.85 139.64 5.64C139.64 6.44 139.37 7.04 138.85 7.45C138.33 7.87 137.63 8.08 136.77 8.08L135.09 8.08ZM159.91 2.80L159.91 12.60L162.01 12.60C164.14 12.60 165.20 11.69 165.20 9.87C165.20 9.19 164.96 8.62 164.49 8.17C164.02 7.72 163.45 7.41 162.79 7.25C164.02 7.02 164.64 6.30 164.64 5.11C164.64 4.40 164.39 3.84 163.88 3.42C163.37 3.01 162.65 2.80 161.73 2.80ZM160.33 7.08L160.33 3.21L161.73 3.21C162.50 3.21 163.11 3.37 163.56 3.71C164.00 4.05 164.22 4.51 164.22 5.11C164.22 5.60 164.08 5.99 163.81 6.31C163.54 6.62 163.23 6.83 162.88 6.93C162.53 7.03 162.15 7.08 161.73 7.08ZM160.33 7.48L162.01 7.48C162.41 7.48 162.81 7.56 163.21 7.72C163.61 7.88 163.97 8.16 164.28 8.54C164.58 8.92 164.74 9.37 164.74 9.87C164.74 11.42 163.83 12.19 162.01 12.19L160.33 12.19ZM174.23 2.80L174.23 9.24C174.23 10.29 174.51 11.13 175.08 11.77C175.65 12.42 176.41 12.74 177.35 12.74C178.29 12.74 179.05 12.42 179.62 11.77C180.19 11.13 180.47 10.29 180.47 9.24L180.47 2.80L180.05 2.80L180.05 9.24C180.05 10.17 179.80 10.92 179.29 11.47C178.78 12.02 178.14 12.29 177.35 12.29C176.57 12.29 175.92 12.02 175.41 11.47C174.90 10.92 174.65 10.17 174.65 9.24L174.65 2.80ZM188.94 3.21L191.46 3.21L191.46 12.60L191.88 12.60L191.88 3.21L194.40 3.21L194.40 2.80L188.94 2.80ZM214.14 2.80L214.14 12.60L216.24 12.60C218.37 12.60 219.44 11.69 219.44 9.87C219.44 9.19 219.20 8.62 218.73 8.17C218.26 7.72 217.69 7.41 217.03 7.25C218.26 7.02 218.88 6.30 218.88 5.11C218.88 4.40 218.62 3.84 218.11 3.42C217.60 3.01 216.89 2.80 215.96 2.80ZM214.56 7.08L214.56 3.21L215.96 3.21C216.74 3.21 217.35 3.37 217.79 3.71C218.23 4.05 218.46 4.51 218.46 5.11C218.46 5.60 218.32 5.99 218.05 6.31C217.78 6.62 217.47 6.83 217.12 6.93C216.77 7.03 216.38 7.08 215.96 7.08ZM214.56 7.48L216.24 7.48C216.65 7.48 217.05 7.56 217.45 7.72C217.85 7.88 218.20 8.16 218.51 8.54C218.82 8.92 218.97 9.37 218.97 9.87C218.97 11.42 218.06 12.19 216.24 12.19L214.56 12.19ZM231.76 2.45L227.49 12.60L227.98 12.60L229.25 9.52L234.26 9.52L235.54 12.60L236.03 12.60ZM231.76 3.50L234.07 9.07L229.45 9.07ZM244.50 2.80L244.50 12.60L246.88 12.60C248.29 12.60 249.43 12.15 250.28 11.25C251.14 10.35 251.57 9.17 251.57 7.70C251.57 6.23 251.14 5.05 250.28 4.15C249.43 3.25 248.29 2.80 246.88 2.80ZM244.92 3.22L246.88 3.22C248.17 3.22 249.20 3.63 249.97 4.46C250.74 5.28 251.12 6.37 251.12 7.70C251.12 9.09 250.74 10.18 249.98 10.98C249.23 11.78 248.19 12.18 246.88 12.18L244.92 12.18Z"></path></g></svg>