<svg data-v-fde0c5aa="" xmlns="http://www.w3.org/2000/svg" viewBox="0 0 300 300" class="font"><!----><defs data-v-fde0c5aa=""><!----></defs><rect data-v-fde0c5aa="" fill="#EBF2F2" x="0" y="0" width="300px" height="300px" class="logo-background-square" style="--darkreader-inline-fill:#1c2b2b;" data-darkreader-inline-fill=""></rect><defs data-v-fde0c5aa=""><linearGradient data-v-fde0c5aa="" gradientTransform="rotate(25)" id="d0cf25e2-8349-4ca1-8caf-9db10c5fa387" x1="0%" y1="0%" x2="100%" y2="0%"><stop data-v-fde0c5aa="" offset="0%" stop-color="#050922" stop-opacity="1" style="--darkreader-inline-stopcolor:#04071b;" data-darkreader-inline-stopcolor=""></stop><stop data-v-fde0c5aa="" offset="100%" stop-color="#6EE6C7" stop-opacity="1" style="--darkreader-inline-stopcolor:#16836e;" data-darkreader-inline-stopcolor=""></stop></linearGradient></defs><g data-v-fde0c5aa="" id="b36cd749-b997-422a-9d5a-120d141adc8b" fill="url(#d0cf25e2-8349-4ca1-8caf-9db10c5fa387)" transform="matrix(5.093771934509277,0,0,5.093771934509277,37.50405173591697,97.6614935666396)"><path d="M0.49 9.52L1.78 9.52L1.78 13.94L3.40 14.88L5.24 14.88L5.24 13.24L3.70 13.24L3.70 9.52L5.24 9.52L5.24 7.88L3.70 7.88L3.70 5.60L1.78 6.71L1.78 7.88L0.49 7.88ZM11.40 10.46L12.63 14.88L14.62 14.88L16.41 7.88L14.63 7.88L13.54 12.35L13.51 12.35L12.26 7.88L10.50 7.88L9.25 12.35L9.23 12.35L8.13 7.88L6.36 7.88L8.15 14.88L10.14 14.88L11.37 10.46ZM19.45 12.12L21.42 12.12L21.42 13.34L19.45 13.34ZM19.15 14.95L20.43 14.95L21.42 14.38L22.41 14.95L23.34 14.95L23.34 8.82L21.71 7.88L18.23 7.88L18.23 9.52L21.42 9.52L21.42 10.65L19.15 10.65L17.53 11.59L17.53 14.01ZM24.88 9.52L26.17 9.52L26.17 13.94L27.79 14.88L29.62 14.88L29.62 13.24L28.08 13.24L28.08 9.52L29.62 9.52L29.62 7.88L28.08 7.88L28.08 5.60L26.17 6.71L26.17 7.88L24.88 7.88ZM37.25 13.24L33.36 13.24L33.36 12.10L37.25 12.10L37.25 8.75L35.63 7.81L33.07 7.81L31.44 8.75L31.44 13.94L33.07 14.88L37.25 14.88ZM33.36 9.45L35.34 9.45L35.34 10.65L33.36 10.65ZM43.68 9.52L43.68 7.88L42.27 7.88L41.27 8.46L40.94 7.88L39.35 7.88L39.35 14.88L41.27 14.88L41.27 9.52Z"></path></g><!----><!----></svg>