<?xml version="1.0" standalone="no"?>
<!DOCTYPE svg PUBLIC "-//W3C//DTD SVG 20010904//EN"
 "http://www.w3.org/TR/2001/REC-SVG-20010904/DTD/svg10.dtd">
<svg version="1.0" xmlns="http://www.w3.org/2000/svg"
 width="1520.000000pt" height="1436.000000pt" viewBox="0 0 1520.000000 1436.000000"
 preserveAspectRatio="xMidYMid meet">
<metadata>
Created by potrace 1.16, written by Peter Selinger 2001-2019
</metadata>
<g transform="translate(0.000000,1436.000000) scale(0.100000,-0.100000)"
fill="#000000" stroke="none">
<path d="M5247 12390 c-836 -61 -1605 -473 -2166 -1163 -196 -241 -376 -587
-500 -960 -41 -121 -45 -128 -79 -146 -21 -10 -193 -82 -384 -162 -192 -79
-348 -146 -348 -149 0 -3 135 -88 300 -190 267 -164 299 -187 295 -207 -26
-111 -83 -562 -104 -818 -34 -405 -39 -1125 -11 -1510 56 -786 183 -1460 360
-1914 53 -135 176 -391 255 -531 422 -747 1131 -1416 1962 -1852 l131 -69 65
108 c36 59 480 810 987 1668 507 858 928 1569 935 1581 11 18 9 27 -22 75 -62
97 -134 249 -173 368 -115 344 -85 669 87 929 87 131 258 284 415 370 209 116
484 199 771 235 l99 12 428 724 429 725 -173 180 c-539 566 -995 1103 -1476
1741 -298 395 -490 560 -845 731 -361 173 -810 255 -1238 224z m-1123 -1575
c141 -30 277 -122 341 -231 132 -226 0 -494 -277 -559 -235 -55 -495 60 -591
262 -28 60 -32 78 -32 153 0 76 4 93 33 152 55 113 164 192 303 222 84 19 139
19 223 1z"/>
</g>
</svg>
